<svg width="70" height="70" viewBox="0 0 70 70" fill="none" xmlns="http://www.w3.org/2000/svg">
<circle cx="35" cy="35" r="35" fill="#2A592E"/>
<path d="M16.9471 23.0543C16.9471 21.7163 18.0317 20.6317 19.3697 20.6317H43.6839C44.7885 20.6317 45.6839 21.5271 45.6839 22.6317V25.9593C45.6839 26.4858 46.0921 26.9221 46.6174 26.9571L47.3156 27.0037C49.7366 27.165 51.9013 28.5686 53.0365 30.7129L54.0762 32.6768C54.3688 33.2294 54.8267 33.6768 55.3859 33.9564L55.6313 34.0791L56.4872 34.507C56.6531 34.59 56.8263 34.6574 57.0046 34.7083L58.4588 35.1238C58.9949 35.277 59.4209 35.6848 59.5972 36.2138V36.2138C59.6546 36.386 59.6839 36.5664 59.6839 36.7479V43.4212C59.6839 45.078 58.3408 46.4212 56.6839 46.4212H54.526C54.526 46.4212 54.526 40.158 48.9997 40.158C43.4734 40.158 43.4734 46.4212 43.4734 46.4212H32.4208C32.4208 46.4212 32.4208 40.158 26.526 40.158C20.6313 40.158 20.9997 46.4212 20.9997 46.4212H19.9471C18.2902 46.4212 16.9471 45.078 16.9471 43.4212V40.9475C16.9471 39.2907 18.2902 37.9475 19.9471 37.9475H26.0673C26.6049 37.9475 27.1286 37.7772 27.5634 37.461L28.0339 37.1188C29.3618 36.1531 29.1938 34.1235 27.7252 33.3892V33.3892C27.4212 33.2372 27.0859 33.158 26.7459 33.158H18.2366C17.5244 33.158 16.9471 32.5807 16.9471 31.8686V31.8686C16.9471 31.1564 17.5244 30.5791 18.2366 30.5791H27.9997H30.3666C31.7046 30.5791 32.7892 29.4945 32.7892 28.1565V28.1565C32.7892 26.8405 31.7386 25.7652 30.4229 25.7346L19.3133 25.4762C17.9977 25.4456 16.9471 24.3703 16.9471 23.0543V23.0543Z" fill="white"/>
<circle cx="26.895" cy="46.053" r="4.05263" fill="white"/>
<circle cx="26.8945" cy="46.0524" r="1.84211" fill="#2A592E"/>
<circle cx="49.0002" cy="46.053" r="4.05263" fill="white"/>
<circle cx="48.9997" cy="46.0524" r="1.84211" fill="#2A592E"/>
<path d="M45.684 28.7369H47.2359C48.3756 28.7369 49.4792 29.1365 50.3548 29.8661C50.9179 30.3354 51.3678 30.9256 51.6711 31.5928L53.0524 34.6317H45.684V28.7369Z" fill="#2A592E"/>
<rect x="13.9998" y="26.5269" width="17.6842" height="2.94737" rx="1.47368" fill="white"/>
<rect x="11.0526" y="33.8942" width="16.9474" height="2.94737" rx="1.47368" fill="white"/>
</svg>
