<svg width="70" height="70" viewBox="0 0 70 70" fill="none" xmlns="http://www.w3.org/2000/svg">
<circle cx="35" cy="35" r="35" fill="#2A592E"/>
<rect x="27.1773" y="32.6926" width="30.4211" height="21.579" rx="4" stroke="white" stroke-width="2"/>
<rect x="26.1773" y="39.0616" width="32.4211" height="4.42105" fill="white"/>
<path d="M12.3773 37.1558C10.4247 35.2032 10.4246 32.0373 12.3773 30.0847L25.6635 16.7985C27.6161 14.8459 30.7819 14.8459 32.7346 16.7985L42.3293 26.3932C43.0543 27.1182 43.1948 28.2429 42.6704 29.124C42.2663 29.8029 41.5347 30.2189 40.7446 30.2189L26.432 30.2189C25.2901 30.2189 24.38 31.1734 24.4343 32.314L25.0353 44.9341C25.0585 45.4225 24.9006 45.9022 24.5917 46.2812C23.8496 47.1919 22.4829 47.2614 21.6522 46.4307L12.3773 37.1558Z" fill="white"/>
<rect x="28.3898" y="25.4539" width="6.00012" height="4.42105" transform="rotate(-45 28.3898 25.4539)" fill="#2A592E"/>
</svg>
