<svg width="20" height="20" viewBox="0 0 20 20"  xmlns="http://www.w3.org/2000/svg">
<path d="M4.32507 5.31662C4.16673 5.31662 4.00007 5.24995 3.8834 5.13328C3.64173 4.89162 3.64173 4.49162 3.8834 4.24995L6.9084 1.22495C7.15007 0.983285 7.55007 0.983285 7.79173 1.22495C8.0334 1.46662 8.0334 1.86662 7.79173 2.10828L4.76673 5.13328C4.64173 5.24995 4.4834 5.31662 4.32507 5.31662Z" />
<path d="M15.675 5.31662C15.5167 5.31662 15.3584 5.25828 15.2334 5.13328L12.2083 2.10828C11.9667 1.86662 11.9667 1.46662 12.2083 1.22495C12.45 0.983285 12.85 0.983285 13.0917 1.22495L16.1167 4.24995C16.3584 4.49162 16.3584 4.89162 16.1167 5.13328C16 5.24995 15.8333 5.31662 15.675 5.31662Z" />
<path d="M16.8417 8.8333C16.7834 8.8333 16.7251 8.8333 16.6667 8.8333H16.4751H3.33341C2.75008 8.84164 2.08341 8.84164 1.60008 8.3583C1.21675 7.9833 1.04175 7.39997 1.04175 6.54164C1.04175 4.24997 2.71675 4.24997 3.51675 4.24997H16.4834C17.2834 4.24997 18.9584 4.24997 18.9584 6.54164C18.9584 7.4083 18.7834 7.9833 18.4001 8.3583C17.9667 8.79164 17.3834 8.8333 16.8417 8.8333ZM3.51675 7.5833H16.6751C17.0501 7.59164 17.4001 7.59164 17.5167 7.47497C17.5751 7.41664 17.7001 7.21664 17.7001 6.54164C17.7001 5.59997 17.4667 5.49997 16.4751 5.49997H3.51675C2.52508 5.49997 2.29175 5.59997 2.29175 6.54164C2.29175 7.21664 2.42508 7.41664 2.47508 7.47497C2.59175 7.5833 2.95008 7.5833 3.31675 7.5833H3.51675Z" />
<path d="M8.1333 15.25C7.79163 15.25 7.5083 14.9667 7.5083 14.625V11.6667C7.5083 11.325 7.79163 11.0417 8.1333 11.0417C8.47497 11.0417 8.7583 11.325 8.7583 11.6667V14.625C8.7583 14.975 8.47497 15.25 8.1333 15.25Z" />
<path d="M11.9666 15.25C11.6249 15.25 11.3416 14.9667 11.3416 14.625V11.6667C11.3416 11.325 11.6249 11.0417 11.9666 11.0417C12.3082 11.0417 12.5916 11.325 12.5916 11.6667V14.625C12.5916 14.975 12.3082 15.25 11.9666 15.25Z" />
<path d="M12.4083 18.9583H7.38329C4.39996 18.9583 3.73329 17.1833 3.47496 15.6417L2.29996 8.43334C2.24162 8.09168 2.47496 7.77501 2.81662 7.71668C3.15829 7.65834 3.47496 7.89168 3.53329 8.23334L4.70829 15.4333C4.94996 16.9083 5.44996 17.7083 7.38329 17.7083H12.4083C14.55 17.7083 14.7916 16.9583 15.0666 15.5083L16.4666 8.21668C16.5333 7.87501 16.8583 7.65001 17.2 7.72501C17.5416 7.79168 17.7583 8.11668 17.6916 8.45834L16.2916 15.75C15.9666 17.4417 15.425 18.9583 12.4083 18.9583Z" />
</svg>
