<svg width="20" height="18" viewBox="0 0 20 18"  xmlns="http://www.w3.org/2000/svg">
<path d="M9.99992 17.8458C9.71575 17.8458 9.44075 17.8091 9.21159 17.7266C5.70992 16.5258 0.145752 12.2633 0.145752 5.96581C0.145752 2.75748 2.73992 0.154144 5.92992 0.154144C7.47909 0.154144 8.92742 0.759144 9.99992 1.84081C11.0724 0.759144 12.5208 0.154144 14.0699 0.154144C17.2599 0.154144 19.8541 2.76664 19.8541 5.96581C19.8541 12.2725 14.2899 16.5258 10.7883 17.7266C10.5591 17.8091 10.2841 17.8458 9.99992 17.8458ZM5.92992 1.52914C3.50075 1.52914 1.52075 3.51831 1.52075 5.96581C1.52075 12.2266 7.54325 15.71 9.66075 16.4341C9.82575 16.4891 10.1833 16.4891 10.3483 16.4341C12.4566 15.71 18.4883 12.2358 18.4883 5.96581C18.4883 3.51831 16.5083 1.52914 14.0791 1.52914C12.6858 1.52914 11.3933 2.17998 10.5591 3.30748C10.3024 3.65581 9.71575 3.65581 9.45909 3.30748C8.60659 2.17081 7.32325 1.52914 5.92992 1.52914Z" />
</svg>
