<svg width="14" height="16" viewBox="0 0 14 16" fill="none" xmlns="http://www.w3.org/2000/svg">
<path d="M6.29327 15.1C5.97327 15.1 5.65993 15.02 5.3666 14.86C4.77993 14.5334 4.4266 13.94 4.4266 13.2734V9.74002C4.4266 9.40669 4.2066 8.90669 3.99993 8.65336L1.5066 6.01336C1.0866 5.59336 0.766602 4.87336 0.766602 4.33336V2.80002C0.766602 1.73336 1.57327 0.900024 2.59993 0.900024H11.3999C12.4133 0.900024 13.2333 1.72002 13.2333 2.73336V4.20002C13.2333 4.90002 12.8133 5.69336 12.4199 6.08669L9.53327 8.64002C9.25327 8.87336 9.03327 9.38669 9.03327 9.80002V12.6667C9.03327 13.26 8.65993 13.9467 8.19327 14.2267L7.27327 14.82C6.97327 15.0067 6.63327 15.1 6.29327 15.1ZM2.59993 1.90002C2.13327 1.90002 1.7666 2.29336 1.7666 2.80002V4.33336C1.7666 4.58002 1.9666 5.06002 2.21993 5.31336L4.75994 7.98669C5.09994 8.40669 5.43327 9.10669 5.43327 9.73336V13.2667C5.43327 13.7 5.73327 13.9134 5.85993 13.98C6.13994 14.1334 6.47993 14.1334 6.73993 13.9734L7.6666 13.38C7.85327 13.2667 8.03994 12.9067 8.03994 12.6667V9.80002C8.03994 9.08669 8.3866 8.30002 8.8866 7.88002L11.7399 5.35336C11.9666 5.12669 12.2399 4.58669 12.2399 4.19336V2.73336C12.2399 2.27336 11.8666 1.90002 11.4066 1.90002H2.59993Z" fill="#292D32"/>
</svg>
