<svg width="18" height="18" viewBox="0 0 18 18" fill="none" xmlns="http://www.w3.org/2000/svg">
<path d="M5.60181 0.749756C2.93872 0.749756 0.750244 2.9353 0.750244 5.60132V12.3982C0.750244 15.0613 2.93579 17.2498 5.60181 17.2498H12.3987C15.0618 17.2498 17.2502 15.0642 17.2502 12.3982V5.60132C17.2502 2.93823 15.0647 0.749756 12.3987 0.749756H5.60181ZM5.60181 2.24976H12.3987C14.2532 2.24976 15.7502 3.74683 15.7502 5.60132V12.3982C15.7502 14.2527 14.2532 15.7498 12.3987 15.7498H5.60181C3.74731 15.7498 2.25024 14.2527 2.25024 12.3982V5.60132C2.25024 3.74683 3.74731 2.24976 5.60181 2.24976ZM13.4299 3.89038C13.052 3.89038 12.7502 4.19214 12.7502 4.57007C12.7502 4.948 13.052 5.24976 13.4299 5.24976C13.8079 5.24976 14.1096 4.948 14.1096 4.57007C14.1096 4.19214 13.8079 3.89038 13.4299 3.89038ZM9.00024 4.49976C6.52466 4.49976 4.50024 6.52417 4.50024 8.99975C4.50024 11.4753 6.52466 13.4998 9.00024 13.4998C11.4758 13.4998 13.5002 11.4753 13.5002 8.99975C13.5002 6.52417 11.4758 4.49976 9.00024 4.49976ZM9.00024 5.99976C10.6672 5.99976 12.0002 7.33276 12.0002 8.99975C12.0002 10.6667 10.6672 11.9998 9.00024 11.9998C7.33325 11.9998 6.00024 10.6667 6.00024 8.99975C6.00024 7.33276 7.33325 5.99976 9.00024 5.99976Z" fill="white"/>
</svg>
